<svg xmlns="http://www.w3.org/2000/svg" xmlns:xlink="http://www.w3.org/1999/xlink" version="1.1" viewBox="0 0 811 452"><defs><rect id="path-1" width="316.456" height="210.97" x="16.878" y="0"/><mask id="mask-2" width="316.456" height="210.97" x="0" y="0" fill="#fff" maskContentUnits="userSpaceOnUse" maskUnits="objectBoundingBox"><use xlink:href="#path-1"/></mask><rect id="path-3" width="123" height="192" x="0" y="0"/><mask id="mask-4" width="123" height="192" x="0" y="0" fill="#fff" maskContentUnits="userSpaceOnUse" maskUnits="objectBoundingBox"><use xlink:href="#path-3"/></mask><rect id="path-5" width="123" height="192" x="0" y="0"/><mask id="mask-6" width="123" height="192" x="0" y="0" fill="#fff" maskContentUnits="userSpaceOnUse" maskUnits="objectBoundingBox"><use xlink:href="#path-5"/></mask></defs><g fill="none" fill-rule="evenodd" stroke="none" stroke-width="1"><g id="laptop" transform="translate(0.000000, 202.000000)"><polygon id="Polygon" fill="#555" points="350.67 226.793 254.219 249.771 95.992 249.771 0 226.793"/><use id="Rectangle" stroke="#555" stroke-width="30" mask="url(#mask-2)" xlink:href="#path-1"/></g><g id="lines" stroke="#555" stroke-linecap="square" stroke-width="15" transform="translate(340.000000, 96.000000)"><path id="Line" d="M185.5,1.5 L79.5,1.5"/><path id="Line" d="M79.5,209.5 L0.5,209.5"/><path id="Line" d="M79.5,209.5 L79.5,2.98255955" transform="translate(79.500000, 106.000000) scale(-1, 1) translate(-79.500000, -106.000000)"/><path id="Line" d="M343.5,1.5 L318.5,1.5"/></g><g id="server"><g transform="translate(528.000000, 0.000000)"><use id="Rectangle-2" stroke="#555" stroke-width="10" mask="url(#mask-4)" xlink:href="#path-3"/><path id="Line" stroke="#555" stroke-linecap="square" stroke-width="15" d="M24.5,25.5 L98.5,25.5"/><path id="Line" stroke="#555" stroke-linecap="square" stroke-width="15" d="M24.5,49.5 L98.5,49.5"/><path id="Line" stroke="#555" stroke-linecap="square" stroke-width="15" d="M47.5,74.5 L98.5,74.5"/><circle id="Oval" cx="24.5" cy="74.5" r="7.5" fill="#555"/></g></g><g id="server"><g transform="translate(688.000000, 0.000000)"><use id="Rectangle-2" stroke="#555" stroke-width="10" mask="url(#mask-6)" xlink:href="#path-5"/><path id="Line" stroke="#555" stroke-linecap="square" stroke-width="15" d="M24.5,25.5 L98.5,25.5"/><path id="Line" stroke="#555" stroke-linecap="square" stroke-width="15" d="M24.5,49.5 L98.5,49.5"/><path id="Line" stroke="#555" stroke-linecap="square" stroke-width="15" d="M47.5,74.5 L98.5,74.5"/><circle id="Oval" cx="24.5" cy="74.5" r="7.5" fill="#555"/></g></g></g></svg>